<?xml version="1.0" encoding="UTF-8"?>
<svg id="_レイヤー_1" data-name="レイヤー 1" xmlns="http://www.w3.org/2000/svg" viewBox="0 0 1099 819.41">
  <text/>
  <text/>
  <text/>
  <line x1="105" y1="197" x2="639" y2="731" fill="none" stroke="#d0eb00" stroke-miterlimit="10"/>
  <line x1="178" y1="191" x2="718" y2="726" fill="none" stroke="#0500eb" stroke-miterlimit="10"/>
  <line x1="29" y1="630" x2="1028" y2="630" fill="none" stroke="#000" stroke-miterlimit="10"/>
  <line x1="29" y1="743" x2="1028" y2="743" fill="none" stroke="#000" stroke-miterlimit="10"/>
  <polygon points="854 214 819.48 220.28 850.6 248.93 854 214" fill="red"/>
  <polygon points="718.13 726.25 713.28 691.5 683.37 721.41 718.13 726.25" fill="#0013ff"/>
  <polygon points="640.83 730.84 635.99 696.09 606.08 726 640.83 730.84" fill="#d7ff00"/>
  <polygon points="943 214 908.25 218.84 938.16 248.75 943 214" fill="#009609"/>
  <text transform="translate(0 712.36)" font-family="KozGoPr6N-Regular-90ms-RKSJ-H, &apos;Kozuka Gothic Pr6N&apos;" font-size="72"><tspan x="0" y="0">Material</tspan></text>
  <line x1="493" y1="630" x2="854" y2="214" fill="red" stroke="red" stroke-miterlimit="10"/>
  <line x1="578.26" y1="630" x2="943" y2="214" fill="#008a00" stroke="#007d05" stroke-miterlimit="10"/>
  <text transform="translate(599.52 389.21)" font-family="KozGoPr6N-Regular-90ms-RKSJ-H, &apos;Kozuka Gothic Pr6N&apos;" font-size="72"><tspan x="0" y="0">Specular</tspan></text>
  <text transform="translate(643.26 795)" font-family="KozGoPr6N-Regular-90ms-RKSJ-H, &apos;Kozuka Gothic Pr6N&apos;" font-size="72"><tspan x="0" y="0">Absorb</tspan></text>
  <text/>
  <line x1="62" y1="197" x2="492.12" y2="630" fill="red" stroke="red" stroke-miterlimit="10"/>
  <line x1="578.26" y1="630" x2="147" y2="197" fill="#008a00" stroke="#007d05" stroke-miterlimit="10"/>
</svg>